<svg width="50" height="44" viewBox="0 0 50 44" fill="currentColor" xmlns="http://www.w3.org/2000/svg">
<path d="M46.8894 19.1401H10.1703L21.4089 5.64128C21.9345 5.00901 22.1873 4.19388 22.1118 3.3752C22.0363 2.55653 21.6387 1.80136 21.0065 1.27584C20.3742 0.750325 19.5591 0.497496 18.7404 0.572976C17.9217 0.648457 17.1665 1.04607 16.641 1.67833L1.16076 20.2546C1.05661 20.4024 0.963479 20.5576 0.882116 20.719C0.882116 20.8739 0.882117 20.9667 0.665394 21.1215C0.52506 21.4765 0.451583 21.8544 0.448669 22.2361C0.451583 22.6178 0.52506 22.9957 0.665394 23.3507C0.665394 23.5055 0.665393 23.5984 0.882116 23.7532C0.963479 23.9146 1.05661 24.0698 1.16076 24.2176L16.641 42.7939C16.9321 43.1434 17.2966 43.4244 17.7087 43.6171C18.1207 43.8097 18.5701 43.9092 19.025 43.9085C19.7484 43.9099 20.4494 43.6579 21.0065 43.1964C21.32 42.9365 21.5791 42.6173 21.769 42.257C21.959 41.8968 22.076 41.5027 22.1134 41.0972C22.1508 40.6917 22.1078 40.2828 21.9869 39.8939C21.866 39.505 21.6696 39.1438 21.4089 38.831L10.1703 25.3322H46.8894C47.7106 25.3322 48.4981 25.006 49.0787 24.4254C49.6593 23.8447 49.9855 23.0572 49.9855 22.2361C49.9855 21.415 49.6593 20.6275 49.0787 20.0469C48.4981 19.4663 47.7106 19.1401 46.8894 19.1401Z" fill="#231F20"/>
</svg>
